<svg width="16" height="16" viewBox="0 0 16 16" fill="none" xmlns="http://www.w3.org/2000/svg">
<path d="M8.00014 3.26L9.38014 6.05L9.61014 6.55L10.1101 6.625L13.1901 7.07L11.0001 9.22L10.6251 9.585L10.7151 10.085L11.2401 13.15L8.48513 11.705L8.00014 11.5L7.53513 11.745L4.78013 13.17L5.28014 10.105L5.37014 9.605L5.00014 9.22L2.79014 7.045L5.87014 6.6L6.37014 6.525L6.60014 6.025L8.00014 3.26ZM8.00014 1L5.72514 5.61L0.640136 6.345L4.32014 9.935L3.45013 15L8.00013 12.61L12.5501 15L11.6801 9.935L15.3601 6.35L10.2751 5.61L8.00014 1Z" fill="#6F7781"/>
</svg>
