<svg fill="none" height="16" viewBox="0 0 16 16" width="16" xmlns="http://www.w3.org/2000/svg"><path d="m8.20008 8.14683c.35572-.30791.64104-.68874.83658-1.11665.19555-.42791.29676-.89288.29675-1.36335 0-.88406-.35118-1.7319-.97631-2.35702-.62512-.62512-1.47296-.97631-2.35702-.97631-.88405 0-1.7319.35119-2.35702.97631s-.97631 1.47296-.97631 2.35702c-.00001.47047.1012.93544.29675 1.36335s.48086.80874.83658 1.11665c-.93324.42259-1.72502 1.10502-2.28068 1.96567-.555655.8607-.851671 1.8632-.852652 2.8877 0 .1768.070238.3463.195262.4714.125024.125.29459.1952.4714.1952.17682 0 .34639-.0702.47141-.1952.12502-.1251.19526-.2946.19526-.4714 0-1.0609.42143-2.0783 1.17157-2.8285.75015-.75011 1.76757-1.17154 2.82843-1.17154 1.06087 0 2.07828.42143 2.82843 1.17154.75014.7502 1.17159 1.7676 1.17159 2.8285 0 .1768.0702.3463.1952.4714.1251.125.2946.1952.4714.1952.1769 0 .3464-.0702.4715-.1952.125-.1251.1952-.2946.1952-.4714-.001-1.0245-.297-2.027-.8526-2.8877-.5557-.86065-1.34748-1.54308-2.28072-1.96567zm-2.2-.48c-.39556 0-.78224-.1173-1.11114-.33706s-.58524-.53212-.73662-.89757c-.15137-.36546-.19098-.76759-.11381-1.15555s.26765-.74433.54736-1.02403c.2797-.27971.63607-.47019 1.02403-.54736s.7901-.03756 1.15555.11381c.36545.15138.67781.40772.89757.73662s.33706.71558.33706 1.11114c0 .53043-.21071 1.03914-.58578 1.41421-.37508.37508-.88379.58579-1.41422.58579zm6.49332.21333c.4267-.48044.7054-1.07396.8025-1.7091.0972-.63515.0088-1.28485-.2546-1.8709-.2635-.58605-.6907-1.08347-1.2302-1.43238-.5396-.34892-1.1685-.53446-1.811-.53428-.17683 0-.3464.07023-.47142.19526-.12503.12502-.19527.29459-.19527.4714s.07024.34638.19527.47141c.12502.12502.29459.19526.47142.19526.5304 0 1.0391.21071 1.4142.58579.3751.37507.5858.88378.5858 1.41421-.001.35016-.0938.69394-.2693.99695s-.4275.55464-.7307.72972c-.0989.05701-.1814.13844-.2398.23649-.0583.09805-.0906.20944-.0936.32351-.0027.11317.0233.22519.0758.3255s.1297.1856.2242.24783l.26.17333.0867.04667c.8036.38115 1.4816.98399 1.954 1.73757.4724.7535.7197 1.6264.7127 2.5158 0 .1768.0702.3463.1952.4714.1251.125.2946.1952.4714.1952.1769 0 .3464-.0702.4715-.1952.125-.1251.1952-.2946.1952-.4714.0055-1.0231-.2508-2.0305-.7443-2.9267-.4936-.89609-1.2081-1.65113-2.0757-2.19334z" fill="#6f7781"/></svg>